<svg width="56.693000000000005" height="56.693000000000005" xmlns="http://www.w3.org/2000/svg">

 <g>
  <title>background</title>
  <rect fill="none" id="canvas_background" height="402" width="582" y="-1" x="-1"/>
 </g>
 <g>
  <title>Layer 1</title>
  <path fill="#ffffff" id="svg_1" d="m28.347,5.155c-13.6,0 -24.625,11.025 -24.625,24.625c0,13.601999 11.025,24.624998 24.625,24.624998c13.599998,0 24.625,-11.022999 24.625,-24.624998c0,-13.6 -11.026001,-24.625 -24.625,-24.625zm1.412001,9.986c1.116999,-1.311 3.005999,-2.283 4.564001,-2.346c0.198997,1.816 -0.533001,3.636999 -1.613003,4.947001c-1.084,1.309 -2.856998,2.327999 -4.598,2.192999c-0.233999,-1.778 0.643,-3.633999 1.647001,-4.794zm8.866999,24.798999c-1.292999,1.889 -2.632999,3.771 -4.743999,3.809002c-2.076,0.038998 -2.743999,-1.23 -5.115,-1.23c-2.373001,0 -3.115,1.193001 -5.08,1.27c-2.037001,0.076 -3.589001,-2.037003 -4.892,-3.920002c-2.665001,-3.848 -4.698,-10.875 -1.964001,-15.618999c1.354,-2.358 3.780001,-3.846001 6.411001,-3.886999c2.004,-0.037001 3.893,1.349998 5.115,1.349998c1.225,0 3.521,-1.665998 5.935999,-1.42c1.010002,0.041 3.846001,0.406 5.667999,3.071001c-0.146,0.091999 -3.386997,1.976999 -3.348,5.902c0.042999,4.689001 4.113003,6.246 4.16,6.269999c-0.037998,0.105999 -0.653,2.221001 -2.146999,4.403999z"/>
 </g>
</svg>