<svg width="50" height="50" xmlns="http://www.w3.org/2000/svg">

 <g>
  <title>background</title>
  <rect fill="none" id="canvas_background" height="402" width="582" y="-1" x="-1"/>
 </g>
 <g>
  <title>Layer 1</title>
  <path id="svg_1" fill="#ffffff" d="m23,28c-2.700001,0 -4,2.5 -4,5l0,0c0,1 0,1 1,1l6,0c1,0 1,0 1,-1l0,0c0,-2.5 -1.299999,-5 -4,-5z"/>
  <circle id="svg_2" r="4" fill="#ffffff" cy="23" cx="23"/>
  <path id="svg_3" fill="#ffffff" d="m34,27c-2.700001,0 -5,2.5 -5,5l0,1c0,1 0,1 1,1l4,0l4,0c1,0 1,0 1,-1l0,-1c0,-2.5 -2.299999,-5 -5,-5z"/>
  <circle id="svg_4" r="5" fill="#ffffff" cy="21" cx="34"/>
  <path id="svg_5" fill="#ffffff" d="m14,29c-2,0 -3,2 -3,3l0,1c0,1 0,1 1,1l4,0c1,0 1,0 1,-1l0,-1c0,-1 -1,-3 -3,-3z"/>
  <circle id="svg_6" r="3" fill="#ffffff" cy="25" cx="14"/>
  <path id="svg_7" fill="#ffffff" d="m25,1c-13.3,0 -24,10.7 -24,24s10.7,24 24,24s24,-10.700001 24,-24s-10.700001,-24 -24,-24zm0,43c-10.5,0 -19,-8.5 -19,-19s8.5,-19 19,-19s19,8.5 19,19s-8.5,19 -19,19z"/>
 </g>
</svg>