<svg width="60.00000000000001" height="60.00000000000001" xmlns="http://www.w3.org/2000/svg">
 <title/>
 <desc/>

 <g>
  <title>background</title>
  <rect fill="none" id="canvas_background" height="402" width="582" y="-1" x="-1"/>
 </g>
 <g>
  <title>Layer 1</title>
  <path fill="#ffffff" id="Fill-195" d="m48.79159,22.76161c0,0 -0.37496,-2.64264 -1.52499,-3.80672c-1.45767,-1.52712 -3.09259,-1.53437 -3.84209,-1.62385c-5.36622,-0.38817 -13.41599,-0.38817 -13.41599,-0.38817l-0.01704,0c0,0 -8.04934,0 -13.41599,0.38817c-0.7495,0.08948 -2.38357,0.09673 -3.84209,1.62385c-1.15003,1.16408 -1.52414,3.80672 -1.52414,3.80672c0,0 -0.38348,3.10324 -0.38348,6.20648l0,2.9098c0,3.10281 0.38348,6.20605 0.38348,6.20605c0,0 0.37411,2.64264 1.52414,3.80673c1.45852,1.52754 3.37466,1.47854 4.22813,1.63875c3.0683,0.29444 13.03847,0.38562 13.03847,0.38562c0,0 8.05829,-0.01236 13.42451,-0.4001c0.7495,-0.08948 2.38442,-0.09673 3.84209,-1.62427c1.15003,-1.16409 1.52499,-3.80673 1.52499,-3.80673c0,0 0.38263,-3.10324 0.38263,-6.20605l0,-2.9098c0,-3.10324 -0.38263,-6.20648 -0.38263,-6.20648zm-22.75043,12.64135l-0.0017,-10.77463l10.36175,5.40585l-10.36005,5.36878z"/>
 </g>
</svg>